<?xml version="1.0" encoding="UTF-8"?>
<svg width="306px" height="243px" viewBox="0 0 306 243" version="1.1" xmlns="http://www.w3.org/2000/svg" xmlns:xlink="http://www.w3.org/1999/xlink">
    <!-- Generator: Sketch 53.2 (72643) - https://sketchapp.com -->
    <title>undraw_book_lover_mkck</title>
    <desc>Created with Sketch.</desc>
    <defs>
        <linearGradient x1="49.9983096%" y1="100.00595%" x2="49.9983096%" y2="-0.00150157813%" id="linearGradient-1">
            <stop stop-color="#808080" stop-opacity="0.25" offset="0%"></stop>
            <stop stop-color="#808080" stop-opacity="0.12" offset="54%"></stop>
            <stop stop-color="#808080" stop-opacity="0.1" offset="100%"></stop>
        </linearGradient>
    </defs>
    <g id="Books" stroke="none" stroke-width="1" fill="none" fill-rule="evenodd">
        <g id="Mobile-Open" transform="translate(-5.000000, -207.000000)">
            <g id="Page-Header" transform="translate(-2.000000, 0.000000)">
                <g id="undraw_book_lover_mkck" transform="translate(7.000000, 207.000000)">
                    <path d="M179.047081,41.1377005 C159.622159,40.4684141 141.11866,34.2544612 123.452546,27.4545109 C105.786433,20.6545606 88.288396,13.1198825 69.328688,9.51763415 C57.1340871,7.20041574 43.1866812,6.87320903 33.3631694,13.3519018 C23.9058257,19.5985754 20.8504224,30.3517776 19.2086683,40.340506 C17.9721004,47.8543619 17.2457668,55.7608658 20.6343231,62.79581 C22.9844025,67.6801137 27.15932,71.7850706 30.0436447,76.4789996 C40.0892586,92.756046 32.9909984,112.82869 22.1049986,128.722012 C17.0026551,136.179351 11.0749326,143.297584 7.13712401,151.227885 C3.19931541,159.158185 1.37447728,168.257506 4.8200598,176.354385 C8.23862992,184.385823 16.3813698,190.406426 25.1994198,194.64524 C43.1146481,203.256726 64.2173404,205.7197 84.8097983,207.11479 C130.379728,210.205406 176.189768,208.866833 221.879753,207.528261 C238.78952,207.031501 255.771319,206.528793 272.404959,203.937911 C281.643202,202.498201 291.178581,200.216678 297.886662,194.701758 C306.398572,187.702509 308.508541,175.848702 302.805922,167.073613 C293.234526,152.352286 266.78938,148.696495 260.090303,132.895385 C256.410613,124.200611 260.19235,114.515292 265.540806,106.448159 C277.018078,89.1478484 296.253912,73.9684317 297.268378,54.1932482 C297.964698,40.6082206 288.71445,27.00832 274.415882,20.5801955 C259.43,13.8189151 238.642452,14.6756017 227.591376,25.8274012 C216.204146,37.3183059 196.196957,41.7266726 179.047081,41.1377005 Z" id="Path" fill-opacity="0.254234047" fill="#AEA8FF" fill-rule="nonzero"></path>
                    <polygon id="Path" fill="#6C63FF" fill-rule="nonzero" points="130.093452 207 27.2216597 206.497435 17 182.49169 53.143981 179.86451 46.8444812 153.544559 118.332984 144.266671 49.8770171 120.438479 55.924056 119 166 136.980986 159.937934 178.055879 151.273116 200.629164"></polygon>
                    <path d="M29,196.068249 C29,196.068249 35.25,195.365732 39,198.468516 C39,198.468516 36.25,199.990636 30.3333333,197.883085 L29,196.068249 Z" id="Path" fill="#6C63FF" fill-rule="nonzero"></path>
                    <path d="M27.8570346,196 C27.8570346,196 24.9727152,200.731707 26.3933502,206 C26.3933502,206 28.7438552,204.746055 29,198.35868 L27.8570346,196 Z" id="Path" fill="#6C63FF" fill-rule="nonzero"></path>
                    <path d="M25,187.772478 C25,187.772478 27.4,182.650798 37,189.819821 C37,189.819821 35.72,193.263079 31.48,192.983896 C27.24,192.704713 26.12,190.471248 25,187.772478 Z" id="Path" fill="#6C63FF" fill-rule="nonzero"></path>
                    <path d="M24.6534089,187.004797 C24.6534089,187.004797 19.4996998,186.42705 19,197.953095 C19,197.953095 22.2672682,198.614615 24.5883592,194.969034 C26.9094502,191.323453 25.9573594,189.27823 24.6534089,187.004797 Z" id="Path" fill="#6C63FF" fill-rule="nonzero"></path>
                    <path d="M22,177.628272 C22,177.628272 24.808642,169.122242 35,175.172923 C35,175.172923 32.6728395,182.977425 23.0432099,180.522076 L22,177.628272 Z" id="Path" fill="#6C63FF" fill-rule="nonzero"></path>
                    <path d="M19,166.31199 C19,166.31199 24.7704918,157.075713 35,165.638792 C35,165.638792 31.4153005,174.309583 19.8743169,169.597197 L19,166.31199 Z" id="Path" fill="#6C63FF" fill-rule="nonzero"></path>
                    <path d="M17,153.371591 C17,153.371591 23.3881481,145.785512 33,153.371591 C33,153.371591 26.9437037,160.027841 17,155.309486 L17,153.371591 Z" id="Path" fill="#6C63FF" fill-rule="nonzero"></path>
                    <path d="M17,142.578179 C17,142.578179 23.6031746,134.810238 33,142.164991 C33,142.164991 25.5502646,149.023918 17,144.396208 L17,142.578179 Z" id="Path" fill="#6C63FF" fill-rule="nonzero"></path>
                    <path d="M17,133.045402 C17,133.045402 24.0660522,122.209016 33,129.552682 C33,129.552682 25.4301075,138.8666 17,135.10521 L17,133.045402 Z" id="Path" fill="#6C63FF" fill-rule="nonzero"></path>
                    <path d="M19,120.629348 C19,120.629348 26.4042553,109.856965 35,118.115792 C35,118.115792 26.2340426,127.451858 19,122.604285 L19,120.629348 Z" id="Path" fill="#6C63FF" fill-rule="nonzero"></path>
                    <path d="M20.3876221,111.062211 C20.3876221,111.062211 29.2598625,100.906577 37,104.952108 C37,104.952108 27.7555194,115.738047 20,113.757088 L20.3876221,111.062211 Z" id="Path" fill="#6C63FF" fill-rule="nonzero"></path>
                    <path d="M22.7294545,100.968642 C22.7294545,100.968642 33.016,90.1160247 39,93.7410456 C39,93.7410456 31.4210909,102.158277 22,103 L22.7294545,100.968642 Z" id="Path" fill="#6C63FF" fill-rule="nonzero"></path>
                    <path d="M28.1516937,89.1707944 C28.1516937,89.1707944 36.7319588,80.1093021 43,82.3588936 C43,82.3588936 35.6597938,91.7589723 27,92 L28.1516937,89.1707944 Z" id="Path" fill="#6C63FF" fill-rule="nonzero"></path>
                    <path d="M31.4411765,78.8972297 C31.4411765,78.8972297 41.5882353,69.5495679 46,71.1940639 C46,71.1940639 38.6764706,81.5803548 31,80.9744878 L31.4411765,78.8972297 Z" id="Path" fill="#6C63FF" fill-rule="nonzero"></path>
                    <path d="M37,69.0122387 C37,69.0122387 44.7628938,59.2880385 49,60.0416438 C49,60.0416438 44.2924154,68.7107966 37,70 L37,69.0122387 Z" id="Path" fill="#6C63FF" fill-rule="nonzero"></path>
                    <path d="M39.2867097,55.5363526 C39.2867097,55.5363526 46.2415484,47.983661 50,48 C50,48 44.5099355,58.0921028 39,57.9993648 L39.2867097,55.5363526 Z" id="Path" fill="#6C63FF" fill-rule="nonzero"></path>
                    <path d="M42.9023053,45.87043 L49.9978427,29 C49.9978427,29 50.3515704,44.2500731 42,49 L42.9023053,45.87043 Z" id="Path" fill="#6C63FF" fill-rule="nonzero"></path>
                    <path d="M46.0370446,27.6191904 C46.0370446,27.6191904 46.9446363,13.1754123 46.3611845,12 C46.3611845,12 50.2786468,24.0089955 46,34 L46.0370446,27.6191904 Z" id="Path" fill="#6C63FF" fill-rule="nonzero"></path>
                    <path d="M21.199446,176.956194 C21.199446,176.956194 14.401662,172.230057 10,183.792158 C10,183.792158 16.0498615,188.29768 22,179.90498 L21.199446,176.956194 Z" id="Path" fill="#6C63FF" fill-rule="nonzero"></path>
                    <path d="M17.1336425,164.745981 C17.1336425,164.745981 7.6163575,160.396025 3,172.704532 C3,172.704532 10.3513912,177.773672 18,167.857166 L17.1336425,164.745981 Z" id="Path" fill="#6C63FF" fill-rule="nonzero"></path>
                    <path d="M17,154.371591 C17,154.371591 10.6118519,146.785512 1,154.371591 C1,154.371591 7.0562963,161.027841 17,156.309486 L17,154.371591 Z" id="Path" fill="#6C63FF" fill-rule="nonzero"></path>
                    <path d="M16,142.578179 C16,142.578179 9.3968254,134.810238 -2.84217094e-14,142.164991 C-2.84217094e-14,142.164991 7.44973545,149.023918 16,144.396208 L16,142.578179 Z" id="Path" fill="#6C63FF" fill-rule="nonzero"></path>
                    <path d="M17,133.870695 C17,133.870695 12.27355,122.2514 2,127.248156 C2,127.248156 7.55327026,137.550904 16.5804196,135.79959 L17,133.870695 Z" id="Path" fill="#6C63FF" fill-rule="nonzero"></path>
                    <path d="M18,121.760696 C18,121.760696 13.3377551,109.985049 3,115.444362 C3,115.444362 9.33061224,126.237943 17.5408163,123.578434 L18,121.760696 Z" id="Path" fill="#6C63FF" fill-rule="nonzero"></path>
                    <path d="M22,111.728744 C22,111.728744 20.2352941,99.128186 12,98 C12,98 13.7470588,111.288186 20.8911765,114 L22,111.728744 Z" id="Path" fill="#6C63FF" fill-rule="nonzero"></path>
                    <path d="M23,100.834 C23,100.834 22.2655944,85.534 15,85 C15,85 15.2448019,96.613 22.1808552,103 L23,100.834 Z" id="Path" fill="#6C63FF" fill-rule="nonzero"></path>
                    <path d="M29,89.7693103 C29,89.7693103 26.8586207,76.6075862 20,75 C20,75 20.8503448,87.7458621 28.3203448,93 L29,89.7693103 Z" id="Path" fill="#6C63FF" fill-rule="nonzero"></path>
                    <path d="M34,78.3974427 C34,78.3974427 33.9265287,65.8440774 29.6140855,64 C29.6140855,64 26.9403706,75.3656544 32.7509887,80 L34,78.3974427 Z" id="Path" fill="#6C63FF" fill-rule="nonzero"></path>
                    <path d="M36,68.1311953 C36,68.1311953 35.4245691,54.8688047 31.1682071,53 C31.1682071,53 29.7128845,63.4956268 35.3636769,69 L36,68.1311953 Z" id="Path" fill="#6C63FF" fill-rule="nonzero"></path>
                    <path d="M40,55.7590361 C40,55.7590361 39.9819817,44.6144578 37.7342013,42 C37.7342013,42 35.4999346,54.2078313 38.8265595,58 L40,55.7590361 Z" id="Path" fill="#6C63FF" fill-rule="nonzero"></path>
                    <path d="M40.9005769,46.6349381 L38.8018852,28 C38.8018852,28 35.9510363,43.2698762 41,50 L40.9005769,46.6349381 Z" id="Path" fill="#6C63FF" fill-rule="nonzero"></path>
                    <path d="M43.1800523,27.1538462 C43.1800523,27.1538462 35.8523049,14.4153846 36.0022708,13 C36.0022708,13 36.7815056,26.3507692 46,33 L43.1800523,27.1538462 Z" id="Path" fill="#6C63FF" fill-rule="nonzero"></path>
                    <path d="M44.4031008,25 C44.4031008,25 37.2403101,6.49779736 34,5 C34,5 44.2325581,10.3744493 45,24.4713656 L44.4031008,25 Z" id="Path" fill="#6C63FF" fill-rule="nonzero"></path>
                    <path d="M38.5299908,59 L38,58.8505844 C44.5343581,39.1124852 46.1638328,26.5280366 42.592156,23.3720142 L42.9707208,23 C46.759661,26.3298323 45.2223586,38.7770625 38.5299908,59 Z" id="Path" fill="#444053" fill-rule="nonzero"></path>
                    <path d="M23.7323077,104 L23,103.744385 C23.6492308,101.961098 24.3476923,100.150745 25.08,98.3674579 C31.4553846,82.8381214 36.8830769,68.3913878 40.3630769,57.300723 L41,57 C37.5138462,68.1117154 32.1815385,83.1117794 25.8,98.6621665 C25.0707692,100.412374 24.3753846,102.213705 23.7323077,104 Z" id="Path" fill="#444053" fill-rule="nonzero"></path>
                    <path d="M37.2369814,210 C37.1400901,209.895551 27.3994912,199.083614 20.6080198,180.626029 C16.6286212,169.819871 14.4139728,158.459866 14.0466651,146.96966 C13.5803759,132.606466 16.6385062,116.569107 21.8766896,102 L22.4459258,102.656535 C10.6857497,135.35496 15.3577249,163.374081 21.5557373,180.24703 C28.2745403,198.537497 37.9061366,209.230064 38,209.337497 L37.2369814,210 Z" id="Path" fill="#444053" fill-rule="nonzero"></path>
                    <path d="M188,187 C188,187 181.232515,195.393696 186.605904,208.082828 L132.573493,231.895806 L127.388173,233 L125,222.382749 L126.597091,208.983777 L126.597091,201.660907 L188,187 Z" id="Path" fill="#FEFEFE" fill-rule="nonzero"></path>
                    <polygon id="Path" fill="#6C63FF" fill-rule="nonzero" points="17 182.293919 91.8372963 169 191 184.392652 129.408296 206"></polygon>
                    <polygon id="Path" fill="#6C63FF" fill-rule="nonzero" points="17 182.293919 91.8372963 169 191 184.392652 129.408296 206"></polygon>
                    <path d="M17.8364604,182 C17.8364604,182 10.7896796,195.111761 18.9101696,207.222195 L130.642097,231 C130.642097,231 123.706597,220.555489 131,206.058412 L17.8364604,182 Z" id="Path" fill="#6C63FF" fill-rule="nonzero"></path>
                    <path d="M17.8364604,182 C17.8364604,182 10.7896796,195.111761 18.9101696,207.222195 L130.642097,231 C130.642097,231 123.706597,220.555489 131,206.058412 L17.8364604,182 Z" id="Path" fill="#000000" fill-rule="nonzero" opacity="0.1"></path>
                    <path d="M21,186 C21,186 16.5,195.713645 21,202" id="Path" fill="#000000" fill-rule="nonzero" opacity="0.1"></path>
                    <path d="M130.032917,231.371134 L192.020069,204 C192.020069,204 195.487045,204.773196 193.245466,207.402062 C191.003886,210.030928 131.228426,234 131.228426,234 L19,206.474227 L130.032917,231.371134 Z" id="Path" fill="#6C63FF" fill-rule="nonzero"></path>
                    <path d="M130.032917,231.371134 L192.020069,204 C192.020069,204 195.487045,204.773196 193.245466,207.402062 C191.003886,210.030928 131.228426,234 131.228426,234 L19,206.474227 L130.032917,231.371134 Z" id="Path" fill="#000000" fill-rule="nonzero" opacity="0.1"></path>
                    <path d="M124,208 C124,208 119.5,215.2 124,226" id="Path" fill="#000000" fill-rule="nonzero" opacity="0.1"></path>
                    <polygon id="Rectangle" fill="#000000" fill-rule="nonzero" opacity="0.1" transform="translate(140.395355, 213.288644) rotate(-18.450000) translate(-140.395355, -213.288644) " points="126.254181 213.130914 154.536351 213.14779 154.536529 213.446375 126.254359 213.429499"></polygon>
                    <polygon id="Rectangle" fill="#000000" fill-rule="nonzero" opacity="0.1" transform="translate(143.084272, 214.043458) rotate(-20.820000) translate(-143.084272, -214.043458) " points="125.854687 213.882779 160.313659 213.905535 160.313856 214.204136 125.854885 214.18138"></polygon>
                    <polygon id="Rectangle" fill="#000000" fill-rule="nonzero" opacity="0.1" transform="translate(145.645663, 215.437727) rotate(-22.260000) translate(-145.645663, -215.437727) " points="125.676006 215.274505 165.615112 215.302338 165.61532 215.600949 125.676214 215.573116"></polygon>
                    <polygon id="Rectangle" fill="#000000" fill-rule="nonzero" opacity="0.1" transform="translate(148.550131, 216.037389) rotate(-24.310000) translate(-148.550131, -216.037389) " points="125.564391 215.870932 171.535648 215.905219 171.535871 216.203845 125.564614 216.169559"></polygon>
                    <polygon id="Rectangle" fill="#000000" fill-rule="nonzero" opacity="0.1" transform="translate(150.969052, 216.649581) rotate(-23.610000) translate(-150.969052, -216.649581) " points="125.828426 216.481929 176.10946 216.518611 176.109678 216.817232 125.828644 216.78055"></polygon>
                    <polygon id="Rectangle" fill="#000000" fill-rule="nonzero" opacity="0.1" transform="translate(156.247714, 216.834816) rotate(-23.360000) translate(-156.247714, -216.834816) " points="126.162522 216.663737 186.33269 216.707276 186.332907 217.005896 126.162738 216.962356"></polygon>
                    <polygon id="Path" fill="#FFFFFF" fill-rule="nonzero" opacity="0.3" points="45 184.044776 97.8211285 173 130 179.119403 86.7166867 193"></polygon>
                    <path d="M191.380823,185 C191.380823,185 194.089545,186.0877 192.500031,187.768153 C190.910518,189.448606 130,207 130,207 L191.380823,185 Z" id="Path" fill="#6C63FF" fill-rule="nonzero"></path>
                    <path d="M218,158 C218,158 211.23518,166.389556 216.608823,179.080047 L162.573852,202.889885 L157.388286,204 L155,193.384149 L156.621049,179.989978 L156.621049,172.658974 L218,158 Z" id="Path" fill="#FCFCFC" fill-rule="nonzero"></path>
                    <polygon id="Path" fill="#3A3768" fill-rule="nonzero" points="48 153.291008 122.834309 140 222 155.392652 160.408296 177"></polygon>
                    <path d="M47.8382842,153 C47.8382842,153 40.7891715,166.111761 48.9088833,178.222195 L160.630102,202 C160.630102,202 153.698274,191.546627 161,177.055458 L47.8382842,153 Z" id="Path" fill="#3A3768" fill-rule="nonzero"></path>
                    <path d="M47.8382842,153 C47.8382842,153 40.7891715,166.111761 48.9088833,178.222195 L160.630102,202 C160.630102,202 153.698274,191.546627 161,177.055458 L125.670232,169.544035 L47.8382842,153 Z" id="Path" fill="#000000" fill-rule="nonzero" opacity="0.1"></path>
                    <path d="M51,158 C51,158 46.5,167.710654 51,174" id="Path" fill="#000000" fill-rule="nonzero" opacity="0.1"></path>
                    <path d="M160.032632,203.371134 L222.022614,176 C222.022614,176 225.486593,176.773196 223.245019,179.402062 C221.003445,182.030928 161.228138,206 161.228138,206 L49,178.474227 L160.032632,203.371134 Z" id="Path" fill="#3A3768" fill-rule="nonzero"></path>
                    <path d="M160.032632,203.371134 L222.022614,176 C222.022614,176 225.486593,176.773196 223.245019,179.402062 C221.003445,182.030928 161.228138,206 161.228138,206 L49,178.474227 L160.032632,203.371134 Z" id="Path" fill="#000000" fill-rule="nonzero" opacity="0.1"></path>
                    <path d="M154,179 C154,179 149.5,186.2 154,197" id="Path" fill="#000000" fill-rule="nonzero" opacity="0.1"></path>
                    <polygon id="Rectangle" fill="#000000" fill-rule="nonzero" opacity="0.1" transform="translate(170.097324, 184.579608) rotate(-18.450000) translate(-170.097324, -184.579608) " points="155.95615 184.421877 184.23832 184.438754 184.238498 184.737339 155.956328 184.720462"></polygon>
                    <polygon id="Rectangle" fill="#000000" fill-rule="nonzero" opacity="0.1" transform="translate(172.789993, 185.332999) rotate(-20.820000) translate(-172.789993, -185.332999) " points="155.560409 185.17232 190.01938 185.195077 190.019578 185.493678 155.560607 185.470921"></polygon>
                    <polygon id="Rectangle" fill="#000000" fill-rule="nonzero" opacity="0.1" transform="translate(175.347001, 186.723135) rotate(-22.260000) translate(-175.347001, -186.723135) " points="155.377344 186.559912 195.316449 186.587746 195.316658 186.886357 155.377552 186.858523"></polygon>
                    <polygon id="Rectangle" fill="#000000" fill-rule="nonzero" opacity="0.1" transform="translate(178.254934, 187.323379) rotate(-24.310000) translate(-178.254934, -187.323379) " points="155.269194 187.156922 201.24045 187.191209 201.240673 187.489835 155.269417 187.455549"></polygon>
                    <polygon id="Rectangle" fill="#000000" fill-rule="nonzero" opacity="0.1" transform="translate(180.669574, 187.931772) rotate(-23.610000) translate(-180.669574, -187.931772) " points="155.528948 187.764121 205.809982 187.800803 205.8102 188.099424 155.529166 188.062742"></polygon>
                    <polygon id="Rectangle" fill="#000000" fill-rule="nonzero" opacity="0.1" transform="translate(185.950512, 188.117047) rotate(-23.360000) translate(-185.950512, -188.117047) " points="155.865319 187.945967 216.035488 187.989507 216.035704 188.288126 155.865536 188.244586"></polygon>
                    <polygon id="Path" fill="#FFFFFF" fill-rule="nonzero" opacity="0.45" points="75 154.044776 127.821128 143 160 149.119403 116.716687 163"></polygon>
                    <path d="M221.381774,155 C221.381774,155 224.087954,156.087847 222.501162,157.765562 C220.914369,159.443277 160,177 160,177 L221.381774,155 Z" id="Path" fill="#3A3768" fill-rule="nonzero"></path>
                    <path d="M221,126 C221,126 214.231232,141.064416 219.60564,153.751038 L165.562986,170.886926 L160.388626,172 L158,161.384849 L159.597393,147.988528 L159.597393,140.658008 L221,126 Z" id="Path" fill="#FBFBFB" fill-rule="nonzero"></path>
                    <polygon id="Path" fill="#6C63FF" fill-rule="nonzero" points="50 120.293919 124.836012 107 224 122.392652 162.406366 144"></polygon>
                    <path d="M49.8447146,121 C49.8447146,121 42.7862308,134.111761 50.9063443,146.222195 L162.633091,170 C162.633091,170 155.697913,159.546627 163,145.058412 L49.8447146,121 Z" id="Path" fill="#6C63FF" fill-rule="nonzero"></path>
                    <path d="M49.8447146,121 C49.8447146,121 42.7862308,134.111761 50.9063443,146.222195 L162.633091,170 C162.633091,170 155.697913,159.546627 163,145.058412 L49.8447146,121 Z" id="Path" fill="#000000" fill-rule="nonzero" opacity="0.1"></path>
                    <path d="M55,125 C55,125 50.5,134.713645 55,141" id="Path" fill="#000000" fill-rule="nonzero" opacity="0.1"></path>
                    <path d="M161.032917,170.421348 L223.020069,150.247191 C223.020069,150.247191 226.487045,151.005618 224.245466,153.58427 C222.003886,156.162921 162.228426,173 162.228426,173 L50,146 L161.032917,170.421348 Z" id="Path" fill="#6C63FF" fill-rule="nonzero"></path>
                    <path d="M161.032917,170.421348 L223.020069,150.247191 C223.020069,150.247191 226.487045,151.005618 224.245466,153.58427 C222.003886,156.162921 162.228426,173 162.228426,173 L50,146 L161.032917,170.421348 Z" id="Path" fill="#000000" fill-rule="nonzero" opacity="0.1"></path>
                    <path d="M157,148 C157,148 152.5,155.2 157,166" id="Path" fill="#000000" fill-rule="nonzero" opacity="0.1"></path>
                    <polygon id="Rectangle" fill="#000000" fill-rule="nonzero" opacity="0.1" transform="translate(172.921864, 151.732211) rotate(-18.450000) translate(-172.921864, -151.732211) " points="158.78069 151.57448 187.06286 151.591356 187.063038 151.889942 158.780868 151.873065"></polygon>
                    <polygon id="Rectangle" fill="#000000" fill-rule="nonzero" opacity="0.1" transform="translate(175.612467, 152.487113) rotate(-20.820000) translate(-175.612467, -152.487113) " points="158.382882 152.326434 192.841854 152.349191 192.842051 152.647792 158.38308 152.625035"></polygon>
                    <polygon id="Rectangle" fill="#000000" fill-rule="nonzero" opacity="0.1" transform="translate(178.166730, 153.878691) rotate(-22.260000) translate(-178.166730, -153.878691) " points="158.197073 153.715469 198.136179 153.743302 198.136387 154.041913 158.197282 154.01408"></polygon>
                    <polygon id="Rectangle" fill="#000000" fill-rule="nonzero" opacity="0.1" transform="translate(181.078826, 154.476322) rotate(-24.310000) translate(-181.078826, -154.476322) " points="158.093086 154.309866 204.064343 154.344152 204.064566 154.642778 158.093309 154.608492"></polygon>
                    <polygon id="Rectangle" fill="#000000" fill-rule="nonzero" opacity="0.1" transform="translate(183.495006, 155.087563) rotate(-23.610000) translate(-183.495006, -155.087563) " points="158.35438 154.919912 208.635414 154.956593 208.635632 155.255214 158.354598 155.218533"></polygon>
                    <polygon id="Rectangle" fill="#000000" fill-rule="nonzero" opacity="0.1" transform="translate(188.774957, 155.274770) rotate(-23.360000) translate(-188.774957, -155.274770) " points="158.689765 155.10369 218.859933 155.14723 218.86015 155.445849 158.689981 155.402309"></polygon>
                    <polygon id="Path" fill="#FFFFFF" fill-rule="nonzero" opacity="0.3" points="78 121.044776 130.821128 110 163 116.119403 119.716687 130"></polygon>
                    <path d="M224.380594,123 C224.380594,123 227.089699,124.0877 225.499961,125.768153 C223.910222,127.448606 163,145 163,145 L224.380594,123 Z" id="Path" fill="#6C63FF" fill-rule="nonzero"></path>
                    <path d="M93.7804268,32.0157408 C93.7804268,32.0157408 82.8238536,31.2833913 84.1040426,39.8093474 C84.1040426,39.8093474 83.8474282,41.3156209 85.078601,42 C85.078601,42 85.0987842,41.3603934 86.2030914,41.5810577 C86.5971623,41.6561413 86.9980201,41.6776202 87.3967812,41.6450183 C87.9343131,41.6042007 88.44533,41.3707479 88.8528522,40.9798275 L88.8528522,40.9798275 C88.8528522,40.9798275 91.9351092,39.5662968 93.1345657,33.9761351 C93.1345657,33.9761351 94.0226248,32.7576845 93.9995583,32.4442772 L92.1427075,33.3205383 C92.1427075,33.3205383 92.7741521,34.8012276 92.278223,36.0324703 C92.278223,36.0324703 92.2176735,33.3749049 91.8601432,33.4356675 C91.7880605,33.4356675 90.9000014,33.9505508 90.9000014,33.9505508 C90.9000014,33.9505508 91.9870088,36.5313635 91.1652658,38.4054109 C91.1652658,38.4054109 91.4766631,35.226566 90.559771,34.1360367 L89.2565154,34.9803175 C89.2565154,34.9803175 90.5280546,37.644279 89.6659452,39.8189415 C89.6659452,39.8189415 89.88796,36.483393 88.9826011,35.1849916 L87.8004445,36.2083621 C87.8004445,36.2083621 88.9970176,38.8339473 88.2675405,40.6376379 C88.2675405,40.6376379 88.1723913,36.7552258 87.5467133,36.4610068 C87.5467133,36.4610068 86.5116055,37.4715852 86.3559068,37.8873295 C86.3559068,37.8873295 87.1747665,39.8061493 86.6644208,40.8007376 C86.6644208,40.8007376 86.3559068,38.2135289 86.0877591,38.2007367 C86.0877591,38.2007367 85.0584178,39.9148825 84.9517354,41.0789665 C85.0015875,39.9937175 85.3067664,38.9418615 85.8369112,38.028043 C85.2436631,38.152535 84.6963325,38.4671905 84.2626246,38.9330863 C84.2626246,38.9330863 84.4212066,37.7210318 86.0935257,37.6154967 C86.0935257,37.6154967 86.9441018,36.3138972 87.1718832,36.2371444 C87.1718832,36.2371444 85.508214,36.0804408 84.5019392,36.5761359 C84.5019392,36.5761359 85.3899983,35.4344381 87.4746306,35.9365293 L88.6279541,34.8811784 C88.6279541,34.8811784 86.442406,34.5613751 85.5139806,34.9163568 C85.5139806,34.9163568 86.5836882,33.9057784 88.9422347,34.641326 L90.2137739,33.8002433 C90.2137739,33.8002433 88.3482731,33.3557167 87.2381993,33.5156183 C87.2381993,33.5156183 88.4088226,32.8152491 90.5857207,33.5731829 L91.4910797,33.1222603 C91.4910797,33.1222603 90.1272746,32.8248432 89.7264947,32.7768727 C89.3257148,32.7289022 89.3055316,32.6073769 89.3055316,32.6073769 C90.1711408,32.4496976 91.0591991,32.560371 91.8716764,32.9271802 C91.8716764,32.9271802 93.8179099,32.1500582 93.7804268,32.0157408 Z" id="Path" fill="#6C63FF" fill-rule="nonzero"></path>
                    <path d="M252.794547,64.0157408 C252.794547,64.0157408 241.822156,63.2833913 243.104193,71.8093474 C243.104193,71.8093474 242.847208,73.3156209 244.080158,74 C244.080158,74 244.100371,73.3603934 245.206272,73.5810577 C245.601083,73.6543922 246.00233,73.6758609 246.401685,73.6450183 C246.935099,73.6014934 247.441519,73.3681637 247.845421,72.9798275 L247.845421,72.9798275 C247.845421,72.9798275 250.935016,71.5662968 252.133316,65.9761351 C252.133316,65.9761351 253.022657,64.7576845 252.999558,64.4442772 L251.145801,65.3205383 C251.145801,65.3205383 251.778157,66.8012276 251.281512,68.0324703 C251.281512,68.0324703 251.220875,65.3749049 250.865716,65.4356675 C250.793529,65.4356675 249.901301,65.9505508 249.901301,65.9505508 C249.901301,65.9505508 250.989878,68.5313635 250.169836,70.4054109 C250.169836,70.4054109 250.481683,67.226566 249.560579,66.1360367 L248.255442,66.9803175 C248.255442,66.9803175 249.528817,69.644279 248.665463,71.8189415 C248.665463,71.8189415 248.887798,68.483393 247.981132,67.1849916 L246.800156,68.2083621 C246.800156,68.2083621 247.99557,70.8339473 247.265039,72.6376379 C247.265039,72.6376379 247.169753,68.7552258 246.543171,68.4610068 C246.543171,68.4610068 245.509457,69.4715852 245.350646,69.8873295 C245.350646,69.8873295 246.170688,71.8061493 245.662493,72.8007376 C245.662493,72.8007376 245.350646,70.2135289 245.084998,70.2007367 C245.084998,70.2007367 244.054171,71.9148825 243.947335,73.0789665 C243.997322,71.9932587 244.304009,70.9411567 244.836676,70.028043 C244.241821,70.1528386 243.692848,70.4674073 243.257229,70.9330863 C243.257229,70.9330863 243.418927,69.7210318 245.090773,69.6154967 C245.090773,69.6154967 245.942577,68.3138972 246.170688,68.2339464 C246.170688,68.2339464 244.507504,68.0804408 243.496889,68.5761359 C243.496889,68.5761359 244.38623,67.4344381 246.473872,67.9365293 L247.628861,66.8811784 C247.628861,66.8811784 245.43727,66.5613751 244.510391,66.9163568 C244.510391,66.9163568 245.578756,65.9057784 247.943595,66.641326 L249.214083,65.8002433 C249.214083,65.8002433 247.345888,65.3557167 246.234212,65.5156183 C246.234212,65.5156183 247.406525,64.8152491 249.586566,65.5731829 L250.49612,65.1222603 C250.49612,65.1222603 249.127458,64.8248432 248.7261,64.7768727 C248.324741,64.7289022 248.304529,64.6073769 248.304529,64.6073769 C249.17134,64.4476709 250.061181,64.5584065 250.874379,64.9271802 C250.874379,64.9271802 252.829197,64.1500582 252.794547,64.0157408 Z" id="Path" fill="#6C63FF" fill-rule="nonzero" opacity="0.1"></path>
                    <path d="M110,82.1170628 C110,82.1170628 105.266061,71.0600512 99.2400085,76.5096474 C99.2400085,76.5096474 97.9393188,76.9992092 98.0022093,78.5355315 C98.0022093,78.5355315 98.5024746,78.2424386 98.8598069,79.4276935 C98.9932883,79.8466784 99.1698194,80.2466293 99.3858001,80.6193901 C99.6782853,81.1246825 100.108736,81.5090498 100.612165,81.7144626 L100.612165,81.7144626 C100.612165,81.7144626 103.204968,84.0269981 108.147589,82.4488053 C108.147589,82.4488053 109.528321,82.7161319 109.754155,82.5293254 L108.176176,81.1540431 C108.176176,81.1540431 107.318578,82.4971174 106.123659,82.616287 C106.123659,82.616287 108.170458,81.253888 107.950342,80.9382494 C107.904603,80.8738334 107.092744,80.2522187 107.092744,80.2522187 C107.092744,80.2522187 105.603383,82.5808582 103.745255,82.7000279 C103.745255,82.7000279 106.375221,81.4439153 106.78115,80.0106586 L105.494754,79.1539254 C105.494754,79.1539254 104.028262,81.7048002 101.915713,81.9302563 C101.915713,81.9302563 104.625722,80.5098828 105.200312,78.9896645 L103.833873,78.3455042 C103.833873,78.3455042 102.361664,80.799755 100.60073,80.9768991 C100.60073,80.9768991 103.58517,78.9767813 103.510845,78.219893 C103.510845,78.219893 102.22159,77.7110063 101.821377,77.7593184 C101.821377,77.7593184 100.72937,79.4953304 99.7002526,79.4953304 C99.7002526,79.4953304 101.566957,77.9203584 101.45261,77.6659151 C101.45261,77.6659151 99.6173515,77.504875 98.6511248,77.9879953 C99.5217957,77.5004239 100.49064,77.2783323 101.461186,77.343835 C101.076145,76.8265364 100.565489,76.447076 99.9918358,76.2519833 C99.9918358,76.2519833 101.015236,75.8139542 101.904278,77.3889262 C101.904278,77.3889262 103.333608,77.5789535 103.502269,77.7625392 C103.502269,77.7625392 102.819049,76.0683976 101.947158,75.330834 C101.947158,75.330834 103.267859,75.6303686 103.871036,77.9074752 L105.257485,78.5258691 C105.257485,78.5258691 104.459919,76.2326584 103.725244,75.5079781 C103.725244,75.5079781 105.028792,76.0522936 105.597666,78.7287796 L106.86691,79.5533048 C106.86691,79.5533048 106.315189,77.5145374 105.65198,76.5128682 C105.65198,76.5128682 106.763998,77.3116269 107.224242,79.8045273 L108.016091,80.4680124 C108.016091,80.4680124 107.587292,78.9896645 107.444359,78.5774019 C107.301426,78.1651393 107.372893,78.0813985 107.372893,78.0813985 C107.916704,78.8460948 108.261131,79.7660644 108.367706,80.7385597 C108.367706,80.7385597 109.897088,82.2136868 110,82.1170628 Z" id="Path" fill="#6C63FF" fill-rule="nonzero" opacity="0.1"></path>
                    <path d="M227,50.1158745 C227,50.1158745 222.268845,39.0607091 216.239839,44.5093953 C216.239839,44.5093953 214.941987,44.9988754 215.00202,46.5349412 C215.00202,46.5349412 215.505152,46.2451175 215.859631,47.4269542 C215.992871,47.8475847 216.170426,48.2486899 216.388492,48.6216721 C216.67993,49.1259317 217.109532,49.5092367 217.612017,49.7133415 L217.612017,49.7133415 C217.612017,49.7133415 220.20772,52.0254908 225.14756,50.4507819 C225.14756,50.4507819 226.528314,50.7148435 226.75701,50.5280682 L225.187582,49.1497953 C225.187582,49.1497953 224.329971,50.4958656 223.137891,50.6150153 C223.137891,50.6150153 225.181864,49.2496235 224.961744,48.9340377 C224.916005,48.8696324 224.104133,48.2481215 224.104133,48.2481215 C224.104133,48.2481215 222.617607,50.5763722 220.756591,50.6955219 C220.756591,50.6955219 223.389457,49.4396191 223.795393,48.009822 L222.488965,47.1596724 C222.488965,47.1596724 221.025309,49.706901 218.909868,49.9355397 C218.909868,49.9355397 221.619919,48.5121831 222.197378,46.9922186 L220.828059,46.3481659 C220.828059,46.3481659 219.355826,48.8052271 217.597723,48.9791214 C217.597723,48.9791214 220.579351,46.9793376 220.505025,46.2257959 C220.505025,46.2257959 219.218608,45.7137739 218.81839,45.7652982 C218.81839,45.7652982 217.726365,47.4978 216.694373,47.4978 C216.694373,47.4978 218.563965,45.9230911 218.449617,45.6686903 C218.449617,45.6686903 216.614329,45.5076771 215.645229,45.9907166 C216.51587,45.5030836 217.484763,45.2810212 218.455334,45.3466639 C218.071729,44.8291225 217.561874,44.4495879 216.988819,44.2549945 C216.988819,44.2549945 218.012235,43.8170386 218.901292,45.3917476 C218.901292,45.3917476 220.330644,45.5849634 220.499308,45.7685184 C220.499308,45.7685184 219.816077,44.0714394 218.941314,43.333999 C218.941314,43.333999 220.262035,43.6367038 220.865222,45.9263113 L222.254552,46.544602 C222.254552,46.544602 221.456973,44.2485539 220.722286,43.5239946 C220.722286,43.5239946 222.025855,44.0682192 222.591879,46.7442583 L223.864002,47.5686458 C223.864002,47.5686458 223.309413,45.5334392 222.646194,44.5287169 C222.646194,44.5287169 223.761089,45.3273423 224.218481,47.8198264 L225.010342,48.4832007 C225.010342,48.4832007 224.584395,47.0050997 224.438601,46.5929059 C224.292808,46.1807122 224.367134,46.1002056 224.367134,46.1002056 C224.909407,46.8654828 225.252773,47.7850952 225.359104,48.7569232 C225.359104,48.7569232 226.91138,50.2189229 227,50.1158745 Z" id="Path" fill="#6C63FF" fill-rule="nonzero" opacity="0.1"></path>
                    <path d="M242,102.117843 C242,102.117843 237.272224,91.0608924 231.238954,96.5088718 C231.238954,96.5088718 229.942029,96.9982883 230.002019,98.5341549 C230.002019,98.5341549 230.504791,98.2443687 230.859017,99.4260522 C230.991235,99.8464889 231.167703,100.247539 231.384643,100.620615 C231.675873,101.124809 232.105169,101.508065 232.607295,101.712143 L232.607295,101.712143 C232.607295,101.712143 235.201144,104.027212 240.140313,102.449488 C240.140313,102.449488 241.517224,102.716735 241.745757,102.526764 L240.16888,101.15189 C240.16888,101.15189 239.311881,102.497785 238.117796,102.61692 C238.117796,102.61692 240.16031,101.251705 239.940347,100.93616 C239.89464,100.871763 239.083348,100.250333 239.083348,100.250333 C239.083348,100.250333 237.597884,102.578281 235.738196,102.700636 C235.738196,102.700636 238.369182,101.441676 238.774828,100.012064 L237.486474,99.1555851 C237.486474,99.1555851 236.023863,101.705703 233.909933,101.931092 C233.909933,101.931092 236.618048,100.50792 237.195094,98.9881531 L235.826753,98.344184 C235.826753,98.344184 234.355572,100.797707 232.598725,100.974798 C232.598725,100.974798 235.58108,98.9752738 235.506807,98.21861 C235.506807,98.21861 234.218452,97.7066545 233.818519,97.758172 C233.818519,97.758172 232.727275,99.4904491 231.696019,99.4904491 C231.696019,99.4904491 233.564277,97.9159444 233.45001,97.6615766 C233.45001,97.6615766 231.616033,97.5005843 230.647624,97.9835612 C231.518758,97.4962957 232.487805,97.2742942 233.45858,97.339592 C233.074707,96.8213102 232.564081,96.4417191 231.990256,96.2480642 C231.990256,96.2480642 233.012941,95.8069453 233.901363,97.3846699 C233.901363,97.3846699 235.329694,97.5746408 235.498237,97.758172 C235.498237,97.758172 234.815495,96.064533 233.944213,95.3239684 C233.944213,95.3239684 235.263991,95.626634 235.866746,97.9159444 L237.252227,98.5341549 C237.252227,98.5341549 236.455219,96.2384047 235.721056,95.5171592 C235.721056,95.5171592 237.023694,96.0580933 237.589314,98.7370052 L238.860528,99.5580659 C238.860528,99.5580659 238.306336,97.5231232 237.64359,96.5185313 C237.64359,96.5185313 238.757688,97.3170531 239.217611,99.8124337 L240.008906,100.456403 C240.008906,100.456403 239.580407,98.9784936 239.437574,98.5663533 C239.294741,98.154213 239.366157,98.0737169 239.366157,98.0737169 C239.909347,98.8380211 240.25263,99.7579485 240.357419,100.73009 C240.357419,100.73009 241.911443,102.214439 242,102.117843 Z" id="Path" fill="#6C63FF" fill-rule="nonzero" opacity="0.1"></path>
                    <ellipse id="Oval" fill="#6C63FF" fill-rule="nonzero" opacity="0.1" cx="61.5" cy="233" rx="6.5" ry="1"></ellipse>
                    <ellipse id="Oval" fill="#6C63FF" fill-rule="nonzero" opacity="0.1" cx="15.5" cy="220" rx="6.5" ry="1"></ellipse>
                    <ellipse id="Oval" fill="#6C63FF" fill-rule="nonzero" opacity="0.1" cx="95.5" cy="242" rx="6.5" ry="1"></ellipse>
                    <ellipse id="Oval" fill="#6C63FF" fill-rule="nonzero" opacity="0.1" cx="271.5" cy="223" rx="6.5" ry="1"></ellipse>
                    <ellipse id="Oval" fill="#6C63FF" fill-rule="nonzero" opacity="0.1" cx="214.5" cy="220" rx="6.5" ry="1"></ellipse>
                    <ellipse id="Oval" fill="#6C63FF" fill-rule="nonzero" opacity="0.1" cx="178" cy="236" rx="8" ry="1"></ellipse>
                    <path d="M180.813801,222 C180.813801,222 168.441667,227.793403 174.833609,234.617535 C174.833609,234.617535 175.434896,236.098466 177.1734,235.994801 C177.1734,235.994801 176.827006,235.4202 178.153759,234.961111 C178.625846,234.795713 179.074523,234.579952 179.490316,234.318387 C180.052168,233.96634 180.472065,233.457862 180.686354,232.870036 L180.686354,232.870036 C180.686354,232.870036 183.215681,229.801546 181.254962,224.123656 C181.254962,224.123656 181.509856,222.518326 181.287641,222.257682 L179.784424,224.126617 C179.784424,224.126617 181.336659,225.071452 181.516392,226.460565 C181.516392,226.460565 179.882459,224.129579 179.555673,224.387261 C179.48378,224.440575 178.8106,225.409104 178.8106,225.409104 C178.8106,225.409104 181.50332,227.064785 181.70266,229.215097 C181.70266,229.215097 180.186371,226.202883 178.549171,225.773413 L177.611294,227.289887 C177.611294,227.289887 180.552372,228.912987 180.879158,231.353562 C180.879158,231.353562 179.170065,228.258416 177.425026,227.633463 L176.735506,229.23583 C176.735506,229.23583 179.572012,230.870779 179.833441,232.902616 C179.833441,232.902616 177.460972,229.50536 176.608059,229.611987 C176.608059,229.611987 176.07213,231.116613 176.144023,231.581626 C176.144023,231.581626 178.147224,232.795989 178.18317,233.98962 C178.18317,233.98962 176.333559,231.871888 176.049255,232.011096 C176.049255,232.011096 175.931612,234.140675 176.50022,235.248412 C176.50022,235.248412 175.519861,233.666777 175.679986,232.011096 C175.106877,232.470448 174.694533,233.071713 174.493751,233.740823 C174.493751,233.740823 173.961089,232.570888 175.715932,231.49277 C175.715932,231.49277 175.882594,229.837089 176.085201,229.63272 C176.085201,229.63272 174.186572,230.473889 173.37941,231.504617 C173.37941,231.504617 173.676785,229.96741 176.251862,229.20325 L176.905435,227.580149 C176.905435,227.580149 174.330358,228.569411 173.536267,229.440199 C173.536267,229.440199 174.108143,227.91484 177.108043,227.18326 L177.996902,225.702328 C177.996902,225.702328 175.709397,226.401328 174.591787,227.18326 C174.591787,227.18326 175.457771,225.871154 178.271402,225.266934 L178.9936,224.333948 C178.9936,224.333948 177.333525,224.870045 176.869489,225.062566 C176.405452,225.255087 176.313952,225.160307 176.313952,225.160307 C177.162166,224.510022 178.19266,224.085571 179.290976,223.934096 C179.290976,223.934096 180.928176,222.100703 180.813801,222 Z" id="Path" fill="#6C63FF" fill-rule="nonzero"></path>
                    <path d="M214.233248,112.008439 C212.261962,106.732843 201.410847,106.23705 196.702669,107.581926 C193.356909,108.540855 186.303684,109.621507 182.535936,110.164801 L182.291786,109.936202 C182.780086,109.793698 182.792143,109.443377 182.731859,108.923833 C182.696769,108.239104 182.706837,107.552853 182.762001,106.869409 C185.070877,107.575988 187.126561,105.904542 187.126561,105.904542 L187.126561,105.904542 C189.839339,104.717013 189.109903,99.6343901 189.628345,98.2449815 C190.017177,97.2058939 190.436151,91.0841834 190.623031,88.0322346 L190.662215,88.0322346 L190.683315,87.0079911 C190.710443,86.5656367 190.722499,86.3073492 190.722499,86.3073492 C190.722499,86.3073492 190.987749,78.8437312 191.506191,77.332601 C191.988463,75.9431924 192.380309,68.9427106 192.440593,67.8323713 C192.440593,67.737369 192.440593,67.686899 192.440593,67.686899 L192.401408,67.0396959 C192.428536,66.5676532 192.440593,66.0421718 192.437578,65.4899709 C192.437578,62.9516283 192.169315,59.7542073 192.136159,59.2376323 C192.136159,59.1634117 192.136159,59.0743471 192.136159,58.9674695 C192.157258,57.8838495 192.018605,52.4568433 187.331526,50.4053875 C185.60439,49.6453691 183.527608,48.7398785 181.517137,47.8581384 C180.998695,43.4494381 179.814115,39.0644883 179.916598,34.623131 C179.916598,33.9551461 179.976882,33.2871612 180.043194,32.6221451 C180.043194,32.8151185 180.022095,33.0110607 180.019081,33.2159094 C180.019081,33.6463886 180.019081,34.0798366 180.019081,34.5103157 C180.196918,28.9556502 182.327957,23.3712965 182.12902,17.9353838 C182.110934,18.4668029 182.07175,19.0011908 182.020508,19.5355787 C182.124576,17.6969349 181.929196,15.8537356 181.441782,14.0759155 C181.26093,13.4494941 181.01678,12.8022909 180.495324,12.3836871 C180.002428,12.0465558 179.43715,11.8260835 178.843543,11.7394528 C177.417231,11.37986 175.968226,11.1140592 174.506112,10.9438085 C174.283933,10.2739644 173.95422,9.64351051 173.529511,9.07641962 C170.473114,4.94381972 165.945788,1.06060084 160.592572,0.169954311 C157.906921,-0.275368954 154.817367,0.095733767 152.990763,1.98687324 C152.800009,2.1530052 152.620765,2.33153401 152.454236,2.52126115 C151.471607,3.67613282 151.049619,5.19320075 150.042877,6.3451036 C149.976565,6.42229296 149.90121,6.49354468 149.828869,6.56776523 C147.857583,8.30452596 144.786115,8.66672222 142.594792,10.2253537 C142.208672,10.5051529 141.846736,10.8159618 141.512695,11.1545949 C140.629723,12.0164202 139.837946,12.9643847 139.149564,13.983882 C138.163921,15.34954 137.15115,16.7716057 136.837673,18.4014888 C136.207706,21.6671928 138.465341,24.7636739 138.884314,28.0501596 C139.818716,35.4039311 131.556798,41.9294013 133.121167,49.1852018 C133.538598,50.9677341 134.460389,52.5972445 135.77969,53.8848466 C132.557512,56.7586661 129.814591,59.5463897 129.814591,59.5463897 L129.814591,59.7126438 L129.305191,59.7126438 L129.356433,60.3064081 L129.305191,60.3064081 L129.585512,63.5275797 L129.305191,68.2183181 C129.305191,68.2183181 129.305191,68.2687881 129.305191,68.3637904 L129.305191,68.387541 L129.305191,68.5152003 C129.305191,68.5152003 129.305191,68.5656703 129.305191,68.6606726 L129.323277,68.6606726 C129.416717,70.3796204 129.787463,76.5607073 130.227536,77.8640201 C130.745978,79.3751503 131.008214,86.8387683 131.008214,86.8387683 C131.008214,86.8387683 131.580911,97.386992 132.105382,98.7823383 C132.629852,100.177684 131.885345,105.245463 134.607167,106.441898 L134.607167,106.441898 C135.403423,107.043486 136.346194,107.428431 137.341045,107.558175 C137.202391,108.668515 137.289803,109.473065 137.738919,109.725415 C137.931152,109.836724 138.14898,109.898023 138.3719,109.903545 C138.187234,110.173303 138.023017,110.456108 137.880586,110.749659 C136.800244,110.638565 135.738711,110.392141 134.721706,110.01636 C131.797934,108.828831 122.095229,106.156892 119.276953,108.036156 C116.458678,109.91542 109.676731,111.619524 112.808483,119.184081 C115.940235,126.748639 117.399107,126.938644 117.399107,126.938644 C118.363096,127.627907 119.208746,128.464835 119.903906,129.41761 C120.844336,130.809988 129.606611,133.995533 131.797934,133.995533 C132.729336,133.9814 133.660684,134.027019 134.586067,134.132099 C134.586067,134.132099 132.207865,136.186524 132.524355,137.37999 C132.840846,138.573456 131.800948,148.127125 131.800948,148.127125 C131.800948,148.127125 134.212307,150.519995 135.243162,147.381951 L135.279333,147.429452 C135.472241,147.687739 136.515154,148.854486 138.477397,147.381951 C139.280471,146.781856 140.133498,146.24954 141.027409,145.790662 L150.528163,144.466568 C151.518686,144.405589 152.511876,144.398651 153.503177,144.445786 C155.010276,144.567508 156.490247,143.688736 157.421635,143.008876 C159.389906,143.745144 161.602328,144.549695 162.654283,144.843608 C164.788336,145.437372 174.596538,148.029154 176.890343,147.218665 C177.367148,147.031934 177.791109,146.734537 178.126164,146.351769 L180.314472,146.420052 L179.289645,146.621932 C179.289645,146.621932 181.285044,146.654589 183.997823,146.690215 L183.883283,146.755529 L187.286313,146.725841 C192.265769,146.770373 197.860121,146.785217 198.595586,146.621932 C199.74701,146.369582 205.730194,146.547712 207.4935,146.621932 L207.984814,146.621932 C207.984814,146.621932 214.558781,145.330495 211.846002,138.760492 C209.760177,133.713495 203.348977,132.246897 200.503573,131.843138 C201.30535,131.68579 201.995602,131.564068 202.45376,131.492817 C204.440117,131.195934 208.298291,129.414641 208.611767,128.806033 C208.925244,128.197424 212.159479,126.430975 212.994412,125.424545 C213.829345,124.418114 216.213576,117.284036 214.233248,112.008439 Z M159.781752,126.77239 L159.459233,126.876299 L159.242211,126.94755 L158.826251,127.35131 C158.494689,127.131617 158.139014,126.900049 157.768268,126.662544 C158.422349,126.701138 159.094515,126.739733 159.781752,126.77239 Z" id="Shape" fill="url(#linearGradient-1)" fill-rule="nonzero"></path>
                    <path d="M179,96.0891314 C179,96.0891314 183.478049,108.118364 186.02439,106.915441 C188.570732,105.712518 187.88,100.600094 188.365854,99.1986881 C188.851707,97.7972825 189.390244,87.1694554 189.390244,87.1694554 C189.390244,87.1694554 189.636098,79.6511851 190.121951,78.1294871 C190.572683,76.7310889 190.938537,69.6789512 191,68.5692545 C191,68.4730207 191,68.4218964 191,68.4218964 L190.517073,59.7007028 L187.783415,59 L181.443902,61.4058465 L180.565854,66.5573654 L180.223415,68.5692545 L180.077073,69.4263374 L179,96.0891314 Z" id="Path" fill="#BE6F72" fill-rule="nonzero"></path>
                    <path d="M181,95 C181,95 185.475096,98.5793753 186.823755,98.893881 C188.172414,99.2083868 189,102 189,102" id="Path" fill="#000000" fill-rule="nonzero" opacity="0.1"></path>
                    <path d="M142,96.0891314 C142,96.0891314 137.521951,108.118364 134.97561,106.915441 C132.429268,105.712518 133.12,100.600094 132.634146,99.1986881 C132.148293,97.7972825 131.609756,87.1694554 131.609756,87.1694554 C131.609756,87.1694554 131.363902,79.6511851 130.878049,78.1294871 C130.427317,76.7310889 130.061463,69.6789512 130,68.5692545 C130,68.4730207 130,68.4218964 130,68.4218964 L130.485854,59.7007028 L133.219512,59 L139.559024,61.4058465 L140.437073,66.5573654 L140.779512,68.5692545 L140.925854,69.4263374 L142,96.0891314 Z" id="Path" fill="#BE6F72" fill-rule="nonzero"></path>
                    <rect id="Rectangle" fill="#3E373A" fill-rule="nonzero" x="164" y="33" width="10" height="16"></rect>
                    <rect id="Rectangle" fill="#000000" fill-rule="nonzero" opacity="0.1" x="164" y="33" width="10" height="16"></rect>
                    <path d="M140.49641,107.935385 C140.49641,107.935385 136.987821,111.706648 138.289637,112.39153 C139.591453,113.076412 148.012669,125.912813 148.012669,125.912813 C148.012669,125.912813 175.672502,129.243163 180.888786,124.246168 C186.105069,119.249172 185.999842,110.322186 185.999842,110.322186 C185.999842,110.322186 181.808776,111.204009 181.351787,110.724885 C180.894799,110.245761 178.384368,107.935385 178.384368,107.935385 C178.384368,107.935385 142.901613,105.830768 140.49641,107.935385 Z" id="Path" fill="#565381" fill-rule="nonzero"></path>
                    <path d="M140.49641,107.935385 C140.49641,107.935385 136.987821,111.706648 138.289637,112.39153 C139.591453,113.076412 148.012669,125.912813 148.012669,125.912813 C148.012669,125.912813 175.672502,129.243163 180.888786,124.246168 C186.105069,119.249172 185.999842,110.322186 185.999842,110.322186 C185.999842,110.322186 181.808776,111.204009 181.351787,110.724885 C180.894799,110.245761 178.384368,107.935385 178.384368,107.935385 C178.384368,107.935385 142.901613,105.830768 140.49641,107.935385 Z" id="Path" fill="#565381" fill-rule="nonzero" opacity="0.02"></path>
                    <path d="M189.991735,59.3746303 L181.096721,66.5128673 L178.407462,66.7091688 L177.420115,66.7805512 L160.836843,68 L143.639815,66.7389115 L141.081016,66.5515327 L137.819511,66.3135915 L131,59.7702076 C131,59.7702076 135.827028,54.5830887 140.055125,51.0823783 C141.721457,49.6993449 143.295875,48.5810211 144.443332,48.1408298 L144.639022,48.0724217 C145.360757,47.790083 146.005123,47.3394534 146.518835,46.7577964 C149.85743,43.3046742 152.944,34.7834038 152.944,34.7834038 C152.944,34.7834038 167.671179,27.1514387 165.892176,37.1628161 C164.113174,47.1741935 172.513032,44.6996047 172.513032,44.6996047 L175.282347,45.9666418 L176.376433,46.4692926 L179.166503,47.751201 L185.461208,50.6481355 C190.400906,52.9293971 189.991735,59.3746303 189.991735,59.3746303 Z" id="Path" fill="#BE6F72" fill-rule="nonzero"></path>
                    <circle id="Oval" fill="#000000" fill-rule="nonzero" opacity="0.1" cx="160.5" cy="30.5" r="13.5"></circle>
                    <path d="M190.713055,70 L131,70 C131,69.9038351 131,69.8527476 131,69.8527476 L131.493914,61.1378077 C131.493914,61.1378077 136.337845,55.8968231 140.580748,52.3597596 L178.070632,50.8571837 L179.81421,49 L186.130958,51.9270177 C191.090929,54.2289639 190.692227,60.7411276 190.692227,60.7411276 C190.692227,60.7411276 191.370615,68.2870635 190.713055,70 Z" id="Path" fill="#000000" fill-rule="nonzero" opacity="0.1"></path>
                    <path d="M190.713055,70 L131,70 C131,69.9038351 131,69.8527476 131,69.8527476 L131.493914,61.1378077 C131.493914,61.1378077 136.337845,55.8968231 140.580748,52.3597596 L178.070632,50.8571837 L179.81421,49 L186.130958,51.9270177 C191.090929,54.2289639 190.692227,60.7411276 190.692227,60.7411276 C190.692227,60.7411276 191.370615,68.2870635 190.713055,70 Z" id="Path" fill="#E7C7CA" fill-rule="nonzero"></path>
                    <path d="M150.76065,45.5293873 C150.76065,45.5293873 160.285625,57.2076242 172.972554,45.2891063 C185.659483,33.3705884 174.377533,71.8734517 174.377533,71.8734517 L147,75 L150.76065,45.5293873 Z" id="Path" fill="#000000" fill-rule="nonzero" opacity="0.1"></path>
                    <path d="M150.76065,45.5293873 C150.76065,45.5293873 160.285625,57.2076242 172.972554,45.2891063 C185.659483,33.3705884 174.377533,71.8734517 174.377533,71.8734517 L147,75 L150.76065,45.5293873 Z" id="Path" fill="#E7C7CA" fill-rule="nonzero"></path>
                    <path d="M177.08921,47.4979888 L178.103435,62.9175315 L179.190321,68.0483247 L180.019866,71.9718724 C180.019866,71.9718724 182.139142,102.153009 181.533635,103.662066 C180.928127,105.171123 181.836389,106.378368 181.963545,107.181186 C182.090702,107.984005 181.836389,110.000105 181.936297,110.905539 C182.036206,111.810973 181.936297,112.212382 179.617204,111.889444 C177.29811,111.566506 174.064699,111.005136 174.064699,111.005136 C174.064699,111.005136 165.890348,111.608759 163.065655,110.603727 C160.240962,109.598695 154.891303,109.595677 154.891303,109.595677 C154.891303,109.595677 146.81686,109.797891 144.195012,109.49608 C141.573165,109.194268 140.156277,112.716407 138.442691,111.708357 C136.729104,110.700307 140.459031,100.945764 141.670046,98.1268455 C142.881061,95.3079273 140.056368,88.1670704 140.056368,88.1670704 L143.689413,68.0754877 L144.497766,63.5211542 L144.497766,49.203223 L144.697584,49.1338064 C145.43454,48.8473053 146.092496,48.3900323 146.617042,47.7998001 L147.525304,62.2082747 L175.984158,63.2163247 L175.984158,47" id="Path" fill="#000000" fill-rule="nonzero" opacity="0.1"></path>
                    <path d="M177.08921,46.4979888 L178.103435,61.9175315 L179.190321,67.0483247 L180.019866,70.9718724 C180.019866,70.9718724 182.139142,101.153009 181.533635,102.662066 C180.928127,104.171123 181.836389,105.378368 181.963545,106.181186 C182.090702,106.984005 181.836389,109.000105 181.936297,109.905539 C182.036206,110.810973 181.936297,111.212382 179.617204,110.889444 C177.29811,110.566506 174.064699,110.005136 174.064699,110.005136 C174.064699,110.005136 165.890348,110.608759 163.065655,109.603727 C160.240962,108.598695 154.891303,108.595677 154.891303,108.595677 C154.891303,108.595677 146.81686,108.797891 144.195012,108.49608 C141.573165,108.194268 140.156277,111.716407 138.442691,110.708357 C136.729104,109.700307 140.459031,99.9457636 141.670046,97.1268455 C142.881061,94.3079273 140.056368,87.1670704 140.056368,87.1670704 L143.689413,67.0754877 L144.497766,62.5211542 L144.497766,48.203223 L144.697584,48.1338064 C145.43454,47.8473053 146.092496,47.3900323 146.617042,46.7998001 L147.525304,61.2082747 L175.984158,62.2163247 L175.984158,46" id="Path" fill="#E7C7CA" fill-rule="nonzero"></path>
                    <path d="M179.433505,15.2089582 C179.265243,14.5787297 179.032039,13.9243777 178.547917,13.5022151 C178.085629,13.1631299 177.551677,12.9399973 176.989283,12.8508785 C175.642829,12.4892049 174.273916,12.2212205 172.891963,12.0487695 C172.694544,11.3791918 172.395731,10.7453105 172.006375,10.170146 C169.113455,5.99676708 164.833114,2.06160853 159.797071,1.17205161 C157.160971,0.7046573 154.105693,1.12380446 152.417172,3.24667926 C151.490257,4.41365732 151.091742,5.96058172 150.155971,7.10645164 C148.352324,9.33185165 145.096313,9.60625734 142.823304,11.3280777 C141.610049,12.2327118 140.730365,13.5444313 139.871345,14.81695 C138.941477,16.1950094 137.985042,17.6303623 137.689846,19.2767964 C137.099455,22.5666493 139.227817,25.7027143 139.620428,29.0227217 C140.506016,36.449768 132.712843,43.0385201 134.185871,50.3660567 C135.044891,54.6389454 138.909006,57.6483616 142.905959,59.1741779 C144.314043,59.7139429 145.922861,60.2506925 146.581148,61.6317673 C146.876344,62.2348568 146.926528,62.9314251 147.204012,63.5405454 C148.136831,65.5729568 151.203917,65.6513584 152.85111,64.1707739 C154.498304,62.6901893 155.017848,60.2959242 155.212678,58.0614779 C156.003803,48.3034909 152.178063,38.6631063 152.623809,28.8809956 C152.756647,25.922842 153.571388,22.5666493 156.166161,21.2277907 C159.658329,19.4185224 163.858967,22.4339696 167.702418,21.8580192 C169.521189,26.378591 169.907294,31.3677596 168.806451,36.1240997 C168.195395,38.7264306 167.138594,41.2503599 167.061843,43.9341079 C166.946717,48.0200388 169.104599,51.7531624 170.970237,55.3656681 C171.370552,56.0411998 171.638258,56.7898974 171.75841,57.56996 C171.787777,58.3614275 171.643549,59.1495894 171.33628,59.8767771 C170.282431,62.7746218 168.464024,65.4644007 168.257387,68.5492031 C168.196834,68.9093003 168.27627,69.2793197 168.478784,69.5804861 C168.686768,69.7814881 168.955167,69.9047591 169.240389,69.930278 C172.428505,70.4881357 175.185635,67.6023527 176.741318,64.704508 C178.475774,61.5038638 179.486465,57.9470386 179.699181,54.2951844 C180.020945,48.1557339 177.866015,42.1157933 177.998853,35.9703119 C178.152355,28.9835208 181.243056,21.9484826 179.433505,15.2089582 Z" id="Path" fill="#000000" fill-rule="nonzero" opacity="0.1"></path>
                    <path d="M179.433505,15.2089582 C179.265243,14.5787297 179.032039,13.9243777 178.547917,13.5022151 C178.085629,13.1631299 177.551677,12.9399973 176.989283,12.8508785 C175.642829,12.4892049 174.273916,12.2212205 172.891963,12.0487695 C172.694544,11.3791918 172.395731,10.7453105 172.006375,10.170146 C169.113455,5.99676708 164.833114,2.06160853 159.797071,1.17205161 C157.160971,0.7046573 154.105693,1.12380446 152.417172,3.24667926 C151.490257,4.41365732 151.091742,5.96058172 150.155971,7.10645164 C148.352324,9.33185165 145.096313,9.60625734 142.823304,11.3280777 C141.610049,12.2327118 140.730365,13.5444313 139.871345,14.81695 C138.941477,16.1950094 137.985042,17.6303623 137.689846,19.2767964 C137.099455,22.5666493 139.227817,25.7027143 139.620428,29.0227217 C140.506016,36.449768 132.712843,43.0385201 134.185871,50.3660567 C135.044891,54.6389454 138.909006,57.6483616 142.905959,59.1741779 C144.314043,59.7139429 145.922861,60.2506925 146.581148,61.6317673 C146.876344,62.2348568 146.926528,62.9314251 147.204012,63.5405454 C148.136831,65.5729568 151.203917,65.6513584 152.85111,64.1707739 C154.498304,62.6901893 155.017848,60.2959242 155.212678,58.0614779 C156.003803,48.3034909 152.178063,38.6631063 152.623809,28.8809956 C152.756647,25.922842 153.571388,22.5666493 156.166161,21.2277907 C159.658329,19.4185224 163.858967,22.4339696 167.702418,21.8580192 C169.521189,26.378591 169.907294,31.3677596 168.806451,36.1240997 C168.195395,38.7264306 167.138594,41.2503599 167.061843,43.9341079 C166.946717,48.0200388 169.104599,51.7531624 170.970237,55.3656681 C171.370552,56.0411998 171.638258,56.7898974 171.75841,57.56996 C171.787777,58.3614275 171.643549,59.1495894 171.33628,59.8767771 C170.282431,62.7746218 168.464024,65.4644007 168.257387,68.5492031 C168.196834,68.9093003 168.27627,69.2793197 168.478784,69.5804861 C168.686768,69.7814881 168.955167,69.9047591 169.240389,69.930278 C172.428505,70.4881357 175.185635,67.6023527 176.741318,64.704508 C178.475774,61.5038638 179.486465,57.9470386 179.699181,54.2951844 C180.020945,48.1557339 177.866015,42.1157933 177.998853,35.9703119 C178.152355,28.9835208 181.243056,21.9484826 179.433505,15.2089582 Z" id="Path" fill="#3E373A" fill-rule="nonzero"></path>
                    <polygon id="Path" fill="#C3C7D9" fill-rule="nonzero" points="174 147.611489 185 148 183.422233 139 174.995463 139.884092"></polygon>
                    <path d="M210.07286,126.23301 C209.275136,127.212523 206.188809,128.977412 205.890036,129.565708 C205.591263,130.154004 201.907389,131.918893 200.013167,132.213041 C198.118946,132.507189 192.14647,133.783792 191.049972,134.469157 C190.264199,134.963326 183.957097,136.528194 179.813113,137.395931 C178.69068,137.657365 177.554669,137.858662 176.410086,137.998935 C174.617447,138.096003 155,131.527676 155,131.527676 L158.782468,127.70375 L158.99161,127.633155 C160.061218,127.277236 165.002926,125.632948 167.745664,124.850514 C170.834979,123.968069 174.420257,120.341223 174.420257,120.341223 C174.420257,120.341223 179.696591,118.576334 180.39572,118.379255 C181.09485,118.182176 178.603081,111.516779 178.603081,111.516779 C178.603081,111.516779 190.055057,109.951911 194.536655,108.625303 C199.018253,107.298695 209.376719,107.789923 211.267953,112.98752 C213.159187,118.185117 210.882536,125.253497 210.07286,126.23301 Z" id="Path" fill="#565381" fill-rule="nonzero"></path>
                    <path d="M159,141.979499 C159,141.979499 156.738011,144.465658 154.473069,144.26055 C152.208127,144.055442 144.288212,144.88209 144.288212,144.88209 C142.852959,145.484585 141.508961,146.304337 140.298724,147.315418 C138.447201,148.850621 137.463855,147.626188 137.28077,147.365141 L137.248287,147.315418 C136.261989,150.581609 134,148.092343 134,148.092343 C134,148.092343 134.983345,138.147707 134.68214,136.904627 C134.380936,135.661548 136.62816,133.526559 136.62816,133.526559 L139.285849,132.814896 L146.018663,131 L155.666076,134.521023 L159,141.979499 Z" id="Path" fill="#E7C7CA" fill-rule="nonzero"></path>
                    <path d="M139,134 L137.110302,148.383839 L137.079507,148.334684 C136.144457,151.563521 134,149.102723 134,149.102723 C134,149.102723 134.932251,139.271821 134.646697,138.042958 C134.361142,136.814096 136.491601,134.703524 136.491601,134.703524 L139,134 Z" id="Path" fill="#000000" fill-rule="nonzero" opacity="0.1"></path>
                    <path d="M152,95 C152,95 157.351515,97.25 162,95" id="Path" fill="#000000" fill-rule="nonzero" opacity="0.1"></path>
                    <path d="M171,97 C171,97 172.691538,99.25 174,97" id="Path" fill="#000000" fill-rule="nonzero" opacity="0.1"></path>
                    <path d="M171,100.804299 C171,100.804299 173.521472,101.594236 174,100" id="Path" fill="#000000" fill-rule="nonzero" opacity="0.1"></path>
                    <path d="M169,106 C169,106 176.209962,105.142857 178,104" id="Path" fill="#000000" fill-rule="nonzero" opacity="0.1"></path>
                    <path d="M148,104 C148,104 152.014116,106.091054 155,105.996914" id="Path" fill="#000000" fill-rule="nonzero" opacity="0.1"></path>
                    <path d="M180.974239,137.417307 C179.844517,137.66949 178.70113,137.863664 177.549114,137.998972 C175.744835,138.092606 156,131.756708 156,131.756708 L159.80703,128.068097 L160.01753,128 C160.618956,128.400072 161.112126,128.743397 161.46396,129.004437 C163.120891,130.235866 164.720685,128.627064 165.322112,128.627064 C165.923539,128.627064 171.1349,132.693048 171.1349,132.693048 C171.1349,132.693048 175.946313,133.734371 176.749217,134.679223 C177.552122,135.624075 180.357777,135.436807 180.856961,136.097919 C181.007317,136.302211 181.02536,136.80443 180.974239,137.417307 Z" id="Path" fill="#000000" fill-rule="nonzero" opacity="0.1"></path>
                    <path d="M144.686881,111.532186 C144.686881,111.532186 139.790029,111.809762 136.966319,110.63678 C134.142608,109.463798 124.760506,106.756686 122.03667,108.657932 C119.312833,110.559178 112.754441,112.239557 115.780926,119.802756 C118.807411,127.365954 120.220779,127.562944 120.220779,127.562944 C121.157186,128.255476 121.974669,129.091902 122.641967,130.040235 C123.549912,131.434084 132.024069,134.615761 134.142608,134.615761 C136.261148,134.615761 139.992803,134.615761 145.237701,138.197386 C150.482599,141.779011 155.225101,142.178959 155.225101,142.178959 C155.225101,142.178959 161.883367,144.865178 163.956509,145.462116 C166.029651,146.059053 175.502548,148.643793 177.723988,147.849866 C179.945428,147.055939 181.35577,142.07748 181.35577,142.07748 C181.35577,142.07748 182.363589,137.600449 181.858166,136.905016 C181.352743,136.209584 178.529033,136.406573 177.723988,135.412672 C176.918943,134.418771 172.073541,133.323391 172.073541,133.323391 C172.073541,133.323391 166.840749,129.043349 166.235452,129.043349 C165.630155,129.043349 164.020065,130.732682 162.352472,129.440312 C159.030629,127.013888 155.540633,124.819755 151.908074,122.873999 C148.076544,120.883213 144.686881,111.532186 144.686881,111.532186 Z" id="Path" fill="#565381" fill-rule="nonzero"></path>
                    <path d="M133,115.124874 C134.820987,114.739662 136.711255,115.256745 138.110895,116.522959 C140.605535,118.676592 149,123 149,123" id="Path" fill="#000000" fill-rule="nonzero" opacity="0.1"></path>
                    <path d="M193,115 C193,115 182.888023,116.272584 181,118" id="Path" fill="#000000" fill-rule="nonzero" opacity="0.1"></path>
                    <path d="M205.649233,147.859031 L205.175695,147.859031 C203.474575,147.795595 197.710673,147.605286 196.600722,147.859031 C195.294721,148.176211 178,147.859031 178,147.859031 L181.381127,147.12 C181.381127,147.12 180.1264,142.495507 180.922669,142.111718 C180.922669,142.111718 176.398414,138.977974 179.809702,136.862379 C183.220991,134.746784 186.897702,135.638062 186.897702,135.638062 L195.46061,132.586784 L197.104423,132 C197.104423,132 206.756168,132.529692 209.368172,139.507665 C211.980175,146.485639 205.649233,147.859031 205.649233,147.859031 Z" id="Path" fill="#E7C7CA" fill-rule="nonzero"></path>
                    <path d="M205.511401,148 L205.02286,148 C207.919874,145.53994 214.473163,138.050851 195,132.592593 L196.695889,132 C196.695889,132 206.653403,132.534935 209.348155,139.581982 C212.042907,146.629029 205.511401,148 205.511401,148 Z" id="Path" fill="#000000" fill-rule="nonzero" opacity="0.1"></path>
                    <circle id="Oval" fill="#4B4B5B" fill-rule="nonzero" cx="189.5" cy="139.5" r="1"></circle>
                    <circle id="Oval" fill="#4B4B5B" fill-rule="nonzero" cx="185.5" cy="140.5" r="1"></circle>
                    <g id="Group" opacity="0.1" transform="translate(134.000000, 19.000000)" fill="#000000" fill-rule="nonzero">
                        <path d="M35.971465,11.0029412 C36.0875658,7.76788697 35.5018189,4.54558068 34.253121,1.55 C30.3614013,2.12058824 26.0984713,-0.829411765 22.5540127,0.935294118 C19.9315924,2.24117647 19.1083439,5.51470588 18.9616561,8.4 C18.9257325,9.16176471 18.9197452,9.92352941 18.9347134,10.6852941 C18.9347134,10.4147059 18.9347134,10.1411765 18.9616561,9.87058824 C19.0993631,6.98529412 19.9226115,3.71176471 22.5540127,2.40588235 C26.0984713,0.641176471 30.355414,3.58235294 34.253121,3.02058824 C35.3106343,5.5579554 35.8927682,8.2621856 35.971465,11.0029412 Z" id="Path"></path>
                        <path d="M5.81363057,10.4647059 C5.86490408,9.82382728 5.85186888,9.17954693 5.77471338,8.54117647 C5.45738854,5.95294118 4.01745223,3.47941176 3.75700637,0.955882353 C3.42171975,4 5.39452229,6.92352941 5.77471338,10.0117647 C5.81363057,10.1705882 5.81363057,10.3117647 5.81363057,10.4647059 Z" id="Path"></path>
                        <path d="M21.5870701,36.8588235 C21.401465,39.0411765 20.8775796,41.3735294 19.1921656,42.8205882 C17.5067516,44.2676471 14.4023567,44.1882353 13.4653503,42.2058824 C13.1659873,41.6176471 13.1210828,40.9323529 12.8307006,40.3441176 C12.1661146,38.9970588 10.5315924,38.4735294 9.10363057,37.9470588 C5.04726115,36.4558824 1.13458599,33.5352941 0.26343949,29.3558824 C0.185617928,28.9772599 0.132621431,28.5941188 0.10477707,28.2088235 C0.031157192,29.084351 0.0845789643,29.965715 0.26343949,30.8264706 C1.13458599,34.9941176 5.05324841,37.9264706 9.10363057,39.4176471 C10.5315924,39.9441176 12.1661146,40.4676471 12.8307006,41.8147059 C13.1300637,42.4029412 13.1809554,43.0823529 13.4653503,43.6764706 C14.4083439,45.6588235 17.5187261,45.7352941 19.1921656,44.2911765 C20.8656051,42.8470588 21.3864968,40.5117647 21.5870701,38.3294118 C21.6782138,37.1807545 21.7091889,36.0282529 21.6798726,34.8764706 C21.6798726,35.5441176 21.6409554,36.2029412 21.5870701,36.8588235 Z" id="Path"></path>
                        <path d="M44.7098726,15.3147059 C44.7098726,15.7411765 44.7098726,16.1647059 44.7098726,16.5882353 C44.8775159,11.1176471 46.919172,5.61764706 46.7185987,0.261764706 C46.5629299,5.21470588 44.8236306,10.2794118 44.7098726,15.3147059 Z" id="Path"></path>
                        <path d="M38.2855414,37.4441176 C38.3591759,37.0951352 38.3823553,36.7376948 38.3543949,36.3823529 C38.2338216,35.6211799 37.962248,34.8906862 37.5550955,34.2323529 C35.8247771,30.9970588 33.8519745,27.6852941 33.6184713,24.0941176 C33.6184713,24.2470588 33.5975159,24.3882353 33.5945223,24.5529412 C33.4747771,28.5352941 35.663121,32.1794118 37.5550955,35.7029412 C37.8766425,36.2486738 38.1223103,36.8342765 38.2855414,37.4441176 L38.2855414,37.4441176 Z" id="Path"></path>
                        <path d="M46.4312102,33.1882353 C46.2077322,36.7515335 45.1756687,40.2205705 43.4106369,43.3411765 C41.83,46.1676471 39.0369427,48.9823529 35.800828,48.4382353 C35.5108957,48.4136864 35.2382911,48.2922295 35.0284713,48.0941176 C34.967671,48.0267551 34.9199797,47.9489947 34.8877707,47.8647059 C34.8518471,48.0941176 34.8219108,48.3264706 34.803949,48.5617647 C34.7420526,48.9120695 34.8226828,49.2722445 35.0284713,49.5647059 C35.2382911,49.7628177 35.5108957,49.8842746 35.800828,49.9088235 C39.0369427,50.4529412 41.83,47.6382353 43.4106369,44.8117647 C45.1756687,41.6911587 46.2077322,38.2221218 46.4312102,34.6588235 C46.4671338,33.9705882 46.4701274,33.2852941 46.449172,32.6 C46.4431847,32.7970588 46.4431847,32.9911765 46.4312102,33.1882353 Z" id="Path"></path>
                    </g>
                    <path d="M183,140.529865 C183,140.529865 190.231429,142.615824 195,138" id="Path" stroke="#000000" opacity="0.1"></path>
                    <path d="M183,148 C183,148 189.596809,143.597678 198,147.855876" id="Path" stroke="#000000" opacity="0.1"></path>
                    <path d="M141,147 C141,147 143.724419,141.276392 151,145.640716" id="Path" stroke="#000000" opacity="0.1"></path>
                    <path d="M134,61.0605339 L139.31988,56.1042793 C139.31988,56.1042793 159.947188,54.7103327 160.800773,61.9371714 C160.800773,61.9371714 168.113353,53.3690463 183.492915,55.2772043 L190,60.6175686 L172.014599,68.7520215 L154.53714,75 L141.664234,69.0617874 L134,61.0605339 Z" id="Path" fill="#000000" fill-rule="nonzero" opacity="0.1"></path>
                    <path d="M134,61.0605339 L139.31988,56.1042793 C139.31988,56.1042793 159.947188,54.7103327 160.800773,61.9371714 C160.800773,61.9371714 168.113353,53.3690463 183.492915,55.2772043 L190,60.6175686 L172.014599,68.7520215 L154.53714,75 L141.664234,69.0617874 L134,61.0605339 Z" id="Path" fill="#D5D6DB" fill-rule="nonzero"></path>
                    <polygon id="Path" fill="#000000" fill-rule="nonzero" opacity="0.1" points="131 61 133.327535 89.7213818 158 91 156.929869 62.4012674 156.909061 61.9198692"></polygon>
                    <polygon id="Path" fill="#6C63FF" fill-rule="nonzero" points="131 60 133.327535 88.7213818 158 90 156.929869 61.4012674 156.909061 60.9198692"></polygon>
                    <polygon id="Path" fill="#000000" fill-rule="nonzero" opacity="0.1" points="189 60 164 63.8425138 164 92 188.430624 88.3819321"></polygon>
                    <polygon id="Path" fill="#6C63FF" fill-rule="nonzero" points="189 60 164 63.8425138 164 92 188.430624 88.3819321"></polygon>
                    <polygon id="Path" fill="#FFFFFF" fill-rule="nonzero" opacity="0.3" points="184 67 171 68.7215311 171.283892 74 183.991568 72.3454545"></polygon>
                    <path d="M133.617618,104.043564 L135.065042,107.847201 C135.065042,107.847201 137.216203,109.64845 139.570187,108.747825 C141.924171,107.847201 143.976993,107.399891 145.000331,106.523283 C146.023669,105.646675 147.4588,101.242622 147.4588,101.242622 C147.4588,101.242622 148.893931,96.4392928 150.32599,95.2384603 C151.758048,94.0376279 155.550237,77.4931591 150.32599,79.1112808 C145.101743,80.7294025 141.10673,95.7398079 141.10673,95.7398079 C141.10673,95.7398079 140.184804,96.8385695 138.854158,96.9406403 C137.523511,97.0427111 134.859145,96.7395009 134.34594,97.8412646 C133.832734,98.9430284 132.081075,101.843039 133.617618,104.043564 Z" id="Path" fill="#BE6F72" fill-rule="nonzero"></path>
                    <path d="M164,65.8654703 C161.16798,66.4623732 158.201014,65.770525 156,64 L157.150139,91.7913355 C157.150139,91.7913355 159.858224,94.5329212 164,93.9071245 L164,65.8654703 Z" id="Path" fill="#000000" fill-rule="nonzero" opacity="0.1"></path>
                    <path d="M164,63.8654703 C161.16798,64.4623732 158.201014,63.770525 156,62 L157.150139,89.7913355 C157.150139,89.7913355 159.858224,92.5329212 164,91.9071245 L164,63.8654703 Z" id="Path" fill="#6C63FF" fill-rule="nonzero"></path>
                    <path d="M164,63.8654703 C161.16798,64.4623732 158.201014,63.770525 156,62 L157.150139,89.7913355 C157.150139,89.7913355 159.858224,92.5329212 164,91.9071245 L164,63.8654703 Z" id="Path" fill="#000000" fill-rule="nonzero" opacity="0.1"></path>
                    <path d="M164,60 C164,60 174.311774,57.7083912 177,58.031153" id="Path" fill="#000000" fill-rule="nonzero" opacity="0.1"></path>
                    <path d="M153,59 C153,59 143.574619,56.392243 142,57.132194" id="Path" fill="#000000" fill-rule="nonzero" opacity="0.1"></path>
                    <path d="M171,61 C171,61 178.344686,57.9361731 181,59.3927465" id="Path" fill="#000000" fill-rule="nonzero" opacity="0.1"></path>
                    <path d="M168,125 C169.14049,124.381184 170.354488,123.836445 171.627809,123.372146 C173.523876,122.712329 177,121 177,121" id="Path" fill="#000000" fill-rule="nonzero" opacity="0.1"></path>
                    <path d="M142,95 C142,95 137.521839,98.5793753 136.176245,98.893881 C134.830651,99.2083868 134,102 134,102" id="Path" fill="#000000" fill-rule="nonzero" opacity="0.1"></path>
                    <path d="M188.379555,103.034558 L186.946858,106.847201 C186.946858,106.847201 184.794738,108.64845 182.43663,107.747825 C180.078522,106.847201 178.030934,106.399891 177.004066,105.523283 C175.977197,104.646675 174.544501,100.242622 174.544501,100.242622 C174.544501,100.242622 173.111804,95.4392928 171.676033,94.2384603 C170.240262,93.0376279 166.449457,76.4931591 171.676033,78.1112808 C176.902609,79.7294025 180.899402,94.7398079 180.899402,94.7398079 C180.899402,94.7398079 181.821739,95.8385695 183.152979,95.9406403 C184.484218,96.0427111 187.149772,95.7395009 187.663206,96.8412646 C188.17664,97.9430284 189.916783,100.843039 188.379555,103.034558 Z" id="Path" fill="#BE6F72" fill-rule="nonzero"></path>
                    <path d="M186,96 C186,96 188.008386,97.3664688 187.999974,99" id="Path" fill="#000000" fill-rule="nonzero" opacity="0.1"></path>
                    <circle id="Oval" fill="#BE6F72" fill-rule="nonzero" cx="160.5" cy="29.5" r="13.5"></circle>
                    <path d="M151.567484,24.9569612 C153.176769,24.7050564 154.58712,23.7715269 156.125145,23.2351178 C159.566401,22.0289384 163.372865,22.8557789 166.85569,23.9434148 C168.191812,24.3612804 169.548718,24.8324906 170.950162,24.8324906 C172.351605,24.8324906 173.839155,24.2605185 174.554722,23.0543391 C175.213876,21.945958 175.086202,20.5056554 174.530969,19.3409662 C173.975736,18.176277 173.046389,17.2397839 172.108134,16.3566353 C169.020208,13.4463941 165.189991,10.7258224 160.952999,11.022181 C159.248701,11.143688 157.618632,11.7512231 156.050916,12.4239571 C154.07691,13.2730242 152.155419,14.2388936 150.296683,15.3164167 C148.868517,16.1432572 146.222995,17.2486746 145.400538,18.7601034 C143.529967,22.1652634 148.657707,25.4133534 151.567484,24.9569612 Z" id="Path" fill="#3E373A" fill-rule="nonzero"></path>
                    <path d="M174.553103,21.8066538 C173.837604,22.7350732 172.350197,23.175331 170.948887,23.175331 C169.547578,23.175331 168.190801,22.8263183 166.851838,22.5046792 C163.369346,21.667505 159.566216,21.028789 156.122319,21.9594894 C154.58741,22.3723737 153.174225,23.1000537 151.565094,23.282544 C149.219682,23.565404 145.443271,21.9959875 145.033566,20 C144.57339,22.306221 148.952483,24.2816783 151.565094,23.9668826 C153.174225,23.7729867 154.58741,23.0544312 156.122319,22.643828 C159.566216,21.7131276 163.369346,22.3518436 166.851838,23.1890177 C168.190801,23.5106569 169.544609,23.8733563 170.948887,23.8596695 C172.353166,23.8459828 173.837604,23.4216929 174.553103,22.4909924 C174.923983,21.9846794 175.069904,21.399262 174.968746,20.8234874 C174.922428,21.1701356 174.78075,21.5052615 174.553103,21.8066538 L174.553103,21.8066538 Z" id="Path" fill="#000000" fill-rule="nonzero" opacity="0.1"></path>
                    <path d="M284.510449,184 C284.510449,184 286.512877,186.244054 283.585212,189.634747 C280.657547,193.02544 278.246529,195.886246 279.21904,198 C279.21904,198 283.635864,191.705067 287.228754,191.615305 C290.821644,191.525543 288.4579,187.784488 284.510449,184 Z" id="Path" fill="#6C63FF" fill-rule="nonzero"></path>
                    <path d="M283.912661,184 C284.071415,184.216581 284.196662,184.453293 284.284646,184.703038 C287.475724,188.232693 289.178861,191.528002 286.10768,191.60901 C283.248622,191.687125 279.820826,196.49845 279,197.710684 C279.026256,197.808655 279.058068,197.905232 279.095302,198 C279.095302,198 283.116429,191.710271 286.387437,191.620583 C289.658445,191.530895 287.506466,187.78136 283.912661,184 Z" id="Path" fill="#000000" fill-rule="nonzero" opacity="0.1"></path>
                    <path d="M286.204897,186.521962 C286.204897,187.338772 286.11217,188 286.001496,188 C285.890821,188 285.795103,187.338772 285.795103,186.521962 C285.795103,185.705151 285.908768,186.091117 286.022434,186.091117 C286.1361,186.091117 286.204897,185.705151 286.204897,186.521962 Z" id="Path" fill="#FFD037" fill-rule="nonzero"></path>
                    <path d="M288.525024,187.511825 C287.744964,187.857671 287.062819,188.067838 287.00407,187.980047 C286.94532,187.892255 287.52955,187.538429 288.30961,187.181942 C289.089671,186.825455 288.782869,187.086169 288.841618,187.181942 C288.900367,187.277714 289.308349,187.163319 288.525024,187.511825 Z" id="Path" fill="#FFD037" fill-rule="nonzero"></path>
                    <path d="M274.491339,184 C274.491339,184 272.488816,186.244054 275.416619,189.634747 C278.344421,193.02544 280.755552,195.886246 279.779618,198 C279.779618,198 275.365965,191.705067 271.769529,191.615305 C268.173094,191.525543 270.553833,187.784488 274.491339,184 Z" id="Path" fill="#6C63FF" fill-rule="nonzero"></path>
                    <path d="M274.088123,184 C273.929394,184.216581 273.804167,184.453293 273.716197,184.703038 C270.525628,188.232693 268.822762,191.528002 271.893454,191.60901 C274.748982,191.687125 278.179305,196.49845 279,197.710684 C278.974227,197.809112 278.941364,197.905774 278.90164,198 C278.90164,198 274.884228,191.710271 271.610668,191.620583 C268.337107,191.530895 270.504112,187.78136 274.088123,184 Z" id="Path" fill="#000000" fill-rule="nonzero" opacity="0.1"></path>
                    <path d="M270.795103,186.521962 C270.795103,187.338772 270.884839,188 270.998504,188 C271.11217,188 271.204897,187.338772 271.204897,186.521962 C271.204897,185.705151 271.08824,186.091117 270.977566,186.091117 C270.866891,186.091117 270.795103,185.705151 270.795103,186.521962 Z" id="Path" fill="#FFD037" fill-rule="nonzero"></path>
                    <path d="M269.474976,187.511825 C270.255036,187.857671 270.937181,188.067838 270.99593,187.980047 C271.05468,187.892255 270.47045,187.538429 269.69039,187.181942 C268.910329,186.825455 269.217131,187.086169 269.158382,187.181942 C269.099633,187.277714 268.691651,187.163319 269.474976,187.511825 Z" id="Path" fill="#FFD037" fill-rule="nonzero"></path>
                    <ellipse id="Oval" fill="#6C63FF" fill-rule="nonzero" opacity="0.1" cx="278.5" cy="214.5" rx="18.5" ry="3.5"></ellipse>
                    <path d="M288.995874,195.127199 L288.901912,195.880741 L288.770364,196.945664 L288.717119,197.390939 L288.585572,198.455862 L288.529194,198.901137 L288.400779,199.962946 L286.913041,212.075666 C286.781494,213.156158 285.005605,214 282.86013,214 L275.139554,214 C272.99408,214 271.221323,213.156158 271.086644,212.075666 L269.598906,199.962946 L269.467359,198.901137 L269.414113,198.455862 L269.282566,197.390939 L269.226188,196.945664 L269.097773,195.880741 L269.003811,195.127199 C268.931773,194.504437 269.890189,194 271.105436,194 L286.897381,194 C288.109495,194 289.071044,194.513779 288.995874,195.127199 Z" id="Path" fill="#65617D" fill-rule="nonzero"></path>
                    <polygon id="Path" fill="#9D9CB5" fill-rule="nonzero" points="289 197 288.876799 198 270.126206 198 270 197"></polygon>
                    <polygon id="Path" fill="#9D9CB5" fill-rule="nonzero" points="289 197 288.874456 198 270.128606 198 270 197"></polygon>
                    <polygon id="Path" fill="#9D9CB5" fill-rule="nonzero" points="289 200 288.868879 201 270.127999 201 270 200"></polygon>
                </g>
            </g>
        </g>
    </g>
</svg>